{"title":"Pawn 2013 BRRip XviD AC3 - TODE","uid":8350905,"size":746408716,"categoryP":"video","categoryS":"movies","magnet":"?xt=urn:btih:d9a1a5eb489859ea5f20cfa7d778359df53a329d&amp;dn=Pawn+2013+BRRip+XviD+AC3+-+TODE&amp;tr=udp%3A%2F%2Ftracker.openbittorrent.com%3A80&amp;tr=udp%3A%2F%2Fopen.demonii.com%3A1337&amp;tr=udp%3A%2F%2Ftracker.coppersurfer.tk%3A6969&amp;tr=udp%3A%2F%2Fexodus.desync.com%3A6969","seeders":1,"leechers":0,"uploader":"xxxlavalxxx","files":2,"time":1365343572,"description":" &lt;a href=&quot;\nhttp://www.imdb.com/title/tt1551630/&quot; rel=&quot;nofollow&quot; target=&quot;_NEW&quot;&gt;\nhttp://www.imdb.com/title/tt1551630/&lt;/a&gt;\n\n\nPlot: A petty robbery spirals into a tense hostage situation after three gunmen hold up a diner that's a front for the mob. \n\n\n\nDirector:\n David A. Armstrong \n\nWriter:\n Jay Anthony White \n\nStars:\n Ronald Guttman, Ray Liotta, Max Beesley \n\nGenres:\n  Crime |  Thriller \n\n\nThanks: BluRay 720p CHD\n\n\nFormat                                   : AVI\nFormat/Info                              : Audio Video Interleave\nFile size                                : 690 MiB\nDuration                                 : 1h 28mn\nOverall bit rate                         : 1 092 Kbps\nWriting application                      : Lavf54.59.103\n\nVideo\nID                                       : 0\nFormat                                   : MPEG-4 Visual\nFormat profile                           : Simple@L3\nFormat settings, BVOP                    : No\nFormat settings, QPel                    : No\nFormat settings, GMC                     : No warppoints\nFormat settings, Matrix                  : Default (H.263)\nCodec ID                                 : XVID\nCodec ID/Hint                            : XviD\nDuration                                 : 1h 28mn\nBit rate                                 : 953 Kbps\nWidth                                    : 640 pixels\nHeight                                   : 264 pixels\nDisplay aspect ratio                     : 2.40:1\nFrame rate                               : 23.976 fps\nColor space                              : YUV\nChroma subsampling                       : 4:2:0\nBit depth                                : 8 bits\nScan type                                : Progressive\nCompression mode                         : Lossy\nBits/(Pixel*Frame)                       : 0.235\nStream size                              : 603 MiB (87%)\nTitle                                    : Pawn.2013\nWriting library                          : XviD 64\n\nAudio\nID                                       : 1\nFormat                                   : AC-3\nFormat/Info                              : Audio Coding 3\nMode extension                           : CM (complete main)\nFormat settings, Endianness              : Big\nCodec ID                                 : 2000\nDuration                                 : 1h 28mn\nBit rate mode                            : Constant\nBit rate                                 : 128 Kbps\nChannel(s)                               : 2 channels\nChannel positions                        : Front: L R\nSampling rate                            : 48.0 KHz\nBit depth                                : 16 bits\nCompression mode                         : Lossy\nStream size                              : 81.0 MiB (12%)\nAlignment                                : Aligned on interleaves\nInterleave, duration                     : 32 ms (0.77 video frame)\nTitle                                    : DD5.1 640K\n\n\n &lt;a href=&quot;\nhttp://www.shotpix.com/images/43152292816625124305.png&quot; rel=&quot;nofollow&quot; target=&quot;_NEW&quot;&gt;\nhttp://www.shotpix.com/images/43152292816625124305.png&lt;/a&gt; &lt;a href=&quot;\nhttp://www.shotpix.com/images/30515243883438975273.png&quot; rel=&quot;nofollow&quot; target=&quot;_NEW&quot;&gt;\nhttp://www.shotpix.com/images/30515243883438975273.png&lt;/a&gt; &lt;a href=&quot;\nhttp://www.shotpix.com/images/84234498488212373613.png&quot; rel=&quot;nofollow&quot; target=&quot;_NEW&quot;&gt;\nhttp://www.shotpix.com/images/84234498488212373613.png&lt;/a&gt; &lt;a href=&quot;\nhttp://www.shotpix.com/images/61451123772072432535.png&quot; rel=&quot;nofollow&quot; target=&quot;_NEW&quot;&gt;\nhttp://www.shotpix.com/images/61451123772072432535.png&lt;/a&gt;","torrent":{"xt":"urn:btih:d9a1a5eb489859ea5f20cfa7d778359df53a329d","amp;dn":"Pawn+2013+BRRip+XviD+AC3+-+TODE","amp;tr":["udp%3A%2F%2Ftracker.openbittorrent.com%3A80","udp%3A%2F%2Fopen.demonii.com%3A1337","udp%3A%2F%2Ftracker.coppersurfer.tk%3A6969","udp%3A%2F%2Fexodus.desync.com%3A6969"],"infoHash":"d9a1a5eb489859ea5f20cfa7d778359df53a329d","infoHashBuffer":{"type":"Buffer","data":[217,161,165,235,72,152,89,234,95,32,207,167,215,120,53,157,245,58,50,157]},"announce":[],"urlList":[]}}